<svg id="svg" xmlns="http://www.w3.org/2000/svg" xmlns:xlink="http://www.w3.org/1999/xlink" width="400" height="357.96178343949043" viewBox="0, 0, 400,357.96178343949043"><g id="svgg"><path id="path0" d="M214.902 47.301 C 198.522 73.203,184.322 95.656,183.347 97.197 C 182.372 98.739,180.634 101.490,179.484 103.312 C 178.334 105.134,176.483 108.057,175.370 109.809 C 174.258 111.561,164.284 127.325,153.206 144.841 C 142.129 162.357,126.214 187.521,117.839 200.761 C 109.465 214.001,102.557 224.979,102.489 225.157 C 102.390 225.416,112.043 225.466,151.966 225.415 L 201.566 225.350 215.386 203.822 C 222.986 191.981,238.989 167.045,250.946 148.408 C 262.904 129.771,273.057 113.949,273.510 113.248 C 273.962 112.548,275.725 109.813,277.429 107.171 L 280.525 102.367 262.832 51.884 C 253.100 24.119,245.036 1.133,244.911 0.805 C 244.713 0.282,241.005 6.027,214.902 47.301 M247.575 176.557 L 222.687 218.317 241.172 248.075 C 251.338 264.443,270.849 295.863,284.530 317.898 L 309.402 357.962 354.707 357.962 L 400.012 357.962 399.647 357.389 C 399.446 357.073,370.769 306.885,335.919 245.860 C 301.070 184.834,272.536 134.880,272.510 134.851 C 272.484 134.822,261.263 153.589,247.575 176.557 M34.749 257.006 C 28.069 268.181,17.575 285.714,11.429 295.968 C 5.283 306.221,0.255 314.677,0.255 314.758 C 0.255 314.838,60.503 314.904,134.140 314.904 C 207.777 314.904,268.025 314.840,268.025 314.761 C 268.025 314.681,261.213 303.417,252.886 289.729 C 244.559 276.040,233.915 258.535,229.232 250.828 L 220.718 236.815 133.807 236.751 L 46.896 236.687 34.749 257.006 " stroke="none" fill="#ffffff" fill-rule="evenodd"></path></g></svg>
